<?xml version="1.0" encoding="utf-8"?>
<svg width="800px" height="800px" viewBox="0 0 256 256" version="1.1" preserveAspectRatio="xMidYMid" xmlns="http://www.w3.org/2000/svg">
  <g>
    <path d="M 197.393 235.84 C 197.393 235.84 189.01 240.769 188.709 240.518 C 188.509 240.368 179.125 227.783 167.864 212.57 L 147.394 184.922 L 121.744 146.966 C 107.63 126.098 96.019 109.034 95.919 109.034 C 95.819 109.009 95.718 125.873 95.668 146.465 C 95.593 182.52 95.568 183.971 95.118 184.822 C 94.467 186.048 93.967 186.549 92.916 187.099 C 92.115 187.499 91.414 187.574 87.636 187.574 L 83.306 187.574 L 82.155 186.849 C 81.404 186.373 80.854 185.748 80.479 185.022 L 79.953 183.896 L 80.003 133.73 L 80.078 83.538 L 80.854 82.562 C 81.254 82.037 82.105 81.361 82.706 81.036 C 83.732 80.536 84.132 80.486 88.461 80.486 C 93.566 80.486 94.417 80.686 95.743 82.137 C 96.119 82.537 110.007 103.455 126.624 128.651 C 143.24 153.846 165.962 188.25 177.123 205.139 L 197.393 235.84 Z M 172.018 77.483 C 173.219 78.084 174.195 79.235 174.545 80.436 C 174.746 81.086 174.796 94.998 174.746 126.349 L 174.671 171.336 L 166.738 159.176 L 158.78 147.016 L 158.78 114.314 C 158.78 93.171 158.88 81.286 159.03 80.711 C 159.431 79.31 160.307 78.209 161.508 77.558 C 162.534 77.033 162.909 76.983 166.838 76.983 C 170.542 76.983 171.192 77.033 172.018 77.483 Z" style="fill: rgb(240, 0, 0);"/>
  </g>
  <g transform="matrix(1, 0, 0, 1, 0, -0.000167)">
    <path d="M 119.617 0.069 C 119.066 0.119 117.315 0.294 115.738 0.419 C 79.378 3.697 45.319 23.313 23.748 53.463 C 11.736 70.227 4.054 89.243 1.151 109.385 C 0.125 116.415 0 118.492 0 128.025 C 0 137.558 0.125 139.635 1.151 146.666 C 8.108 194.73 42.316 235.114 88.712 250.076 C 97.02 252.754 105.778 254.58 115.738 255.681 C 119.617 256.106 136.383 256.106 140.262 255.681 C 157.454 253.779 169.977 250.777 184.341 243.446 C 186.543 242.32 189.01 240.769 188.709 240.518 C 188.509 240.368 179.125 227.783 167.864 212.57 L 147.394 184.922 L 121.744 146.966 C 107.63 126.098 96.019 109.034 95.919 109.034 C 95.819 109.009 95.718 125.873 95.668 146.465 C 95.593 182.52 95.568 183.971 95.118 184.822 C 94.467 186.048 93.967 186.549 92.916 187.099 C 92.115 187.499 91.414 187.574 87.636 187.574 L 83.306 187.574 L 82.155 186.849 C 81.404 186.373 80.854 185.748 80.479 185.022 L 79.953 183.896 L 80.003 133.73 L 80.078 83.538 L 80.854 82.562 C 81.254 82.037 82.105 81.361 82.706 81.036 C 83.732 80.536 84.132 80.486 88.461 80.486 C 93.566 80.486 94.417 80.686 95.743 82.137 C 96.119 82.537 110.007 103.455 126.624 128.651 C 143.24 153.846 165.962 188.25 177.123 205.139 L 197.393 235.84 L 198.419 235.164 C 207.503 229.259 217.112 220.852 224.719 212.095 C 240.91 193.504 251.345 170.836 254.849 146.666 C 255.875 139.635 256 137.558 256 128.025 C 256 118.492 255.875 116.415 254.849 109.385 C 247.892 61.32 213.684 20.936 167.288 5.974 C 159.105 3.322 150.397 1.495 140.637 0.394 C 138.235 0.144 121.694 -0.131 119.617 0.069 Z M 172.018 77.483 C 173.219 78.084 174.195 79.235 174.545 80.436 C 174.746 81.086 174.796 94.998 174.746 126.349 L 174.671 171.336 L 166.738 159.176 L 158.78 147.016 L 158.78 114.314 C 158.78 93.171 158.88 81.286 159.03 80.711 C 159.431 79.31 160.307 78.209 161.508 77.558 C 162.534 77.033 162.909 76.983 166.838 76.983 C 170.542 76.983 171.192 77.033 172.018 77.483 Z" style=""/>
  </g>
</svg>